<svg width="70" height="70" viewBox="0 0 70 70" fill="none" xmlns="http://www.w3.org/2000/svg">
<path d="M7.58332 30.8875L24.4417 14L29.3708 18.9584C28.6708 21.4375 29.8083 24.15 32.0833 25.4625V41.6209C30.3333 42.6125 29.1667 44.5084 29.1667 46.6667C29.1667 48.2138 29.7812 49.6975 30.8752 50.7915C31.9692 51.8854 33.4529 52.5 35 52.5C36.5471 52.5 38.0308 51.8854 39.1248 50.7915C40.2187 49.6975 40.8333 48.2138 40.8333 46.6667C40.8333 44.5084 39.6667 42.6125 37.9167 41.6209V27.4459L43.9542 33.5417C43.75 33.9792 43.75 34.475 43.75 35C43.75 36.5471 44.3646 38.0308 45.4585 39.1248C46.5525 40.2188 48.0362 40.8334 49.5833 40.8334C51.1304 40.8334 52.6141 40.2188 53.7081 39.1248C54.8021 38.0308 55.4167 36.5471 55.4167 35C55.4167 33.4529 54.8021 31.9692 53.7081 30.8752C52.6141 29.7813 51.1304 29.1667 49.5833 29.1667C49.0583 29.1667 48.5625 29.1667 48.125 29.3708L40.6292 21.875C40.9913 20.5241 40.8509 19.0877 40.234 17.8325C39.6172 16.5773 38.5657 15.5886 37.275 15.05C36.0208 14.5833 34.7083 14.4667 33.5417 14.7875L28.5833 9.85835L30.8875 7.58335C33.1625 5.27918 36.8375 5.27918 39.1125 7.58335L62.4167 30.8875C64.7208 33.1625 64.7208 36.8375 62.4167 39.1125L39.1125 62.4167C36.8375 64.7209 33.1625 64.7209 30.8875 62.4167L7.58332 39.1125C5.27915 36.8375 5.27915 33.1625 7.58332 30.8875Z" fill="#FE6B00"/>
</svg>
