<svg version="1.1" id="Layer_1" xmlns="http://www.w3.org/2000/svg" xmlns:xlink="http://www.w3.org/1999/xlink" x="0px" y="0px"
	 width="100%" viewBox="0 0 816 676" enable-background="new 0 0 816 676" xml:space="preserve">
<path fill="#000000" opacity="1.000000" stroke="none" 
	d="
M817.000000,51.000000 
	C817.000000,242.692505 817.000000,434.385010 816.531372,626.538818 
	C800.393372,627.039551 784.724121,627.078979 769.033875,626.647766 
	C769.008667,454.904327 769.002502,283.631561 769.002502,112.358833 
	C769.002563,91.866425 769.036621,71.374008 769.517334,50.936630 
	C785.653137,50.994438 801.326538,50.997219 817.000000,51.000000 
z"/>
<path fill="#000000" opacity="1.000000" stroke="none" 
	d="
M48.953861,435.045502 
	C33.281677,435.030334 17.609497,435.015167 1.468657,435.000000 
	C1.000000,371.312439 1.000000,307.624878 1.000000,243.468658 
	C16.674402,242.998917 32.348804,242.997849 48.508209,242.995087 
	C48.993214,242.993378 49.032417,243.032394 49.021721,243.498840 
	C49.018154,307.632721 49.025280,371.300171 49.012810,434.987122 
	C48.993217,435.006653 48.953861,435.045502 48.953861,435.045502 
z"/>
<path fill="#02735E" opacity="1.000000" stroke="none" 
	d="
M769.043701,50.921898 
	C769.036621,71.374008 769.002563,91.866425 769.002502,112.358833 
	C769.002502,283.631561 769.008667,454.904327 769.033875,626.647705 
	C769.054810,627.118408 769.032349,627.037720 768.597046,627.022888 
	C544.402649,627.014832 320.643524,627.021606 96.884377,627.028381 
	C96.884377,627.028381 96.983208,627.016785 96.987572,626.589294 
	C97.007942,562.445435 97.023956,498.729095 97.020569,435.023621 
	C97.001167,435.034515 97.033798,435.063263 97.499168,435.040344 
	C113.529663,435.017426 129.094788,435.017426 144.670135,435.017426 
	C144.670135,370.607056 144.670135,307.085510 144.670135,242.936737 
	C128.575317,242.936737 112.804550,242.936737 97.017471,242.951096 
	C97.001160,242.965454 97.039955,242.987244 97.025284,242.519592 
	C96.997620,178.329422 96.984627,114.606903 96.971642,50.884380 
	C96.971642,50.884380 96.983276,50.983242 97.410751,50.987579 
	C321.597351,50.985157 545.356445,50.978397 769.115601,50.971638 
	C769.115601,50.971638 769.032471,50.962196 769.043701,50.921898 
M193.000000,303.500000 
	C193.000000,395.233032 193.000000,486.966095 193.000000,578.584106 
	C369.483337,578.584106 545.045471,578.584106 720.627930,578.584106 
	C720.627930,418.605347 720.627930,259.042725 720.627930,99.327454 
	C544.693665,99.327454 369.131653,99.327454 193.000000,99.327454 
	C193.000000,167.268875 193.000000,234.884445 193.000000,303.500000 
z"/>
<path fill="#000000" opacity="1.000000" stroke="none" 
	d="
M769.061829,50.507404 
	C545.356445,50.978397 321.597351,50.985157 97.361313,50.981796 
	C96.884399,35.165230 96.884399,19.358786 96.884399,3.276833 
	C320.977264,3.276833 544.714966,3.276833 769.008057,3.276833 
	C769.008057,18.841263 769.008057,34.442215 769.061829,50.507404 
z"/>
<path fill="#000000" opacity="1.000000" stroke="none" 
	d="
M96.507408,50.938141 
	C96.984627,114.606903 96.997620,178.329422 96.552757,242.524323 
	C80.407410,243.008606 64.719910,243.020493 49.032417,243.032394 
	C49.032417,243.032394 48.993214,242.993378 48.973553,242.973923 
	C48.953892,179.151352 48.953892,115.348221 48.953892,50.991905 
	C64.842468,50.991905 80.442825,50.991905 96.507408,50.938141 
z"/>
<path fill="#000000" opacity="1.000000" stroke="none" 
	d="
M96.938141,627.492615 
	C320.643524,627.021606 544.402649,627.014832 768.638672,627.018188 
	C769.115601,642.834717 769.115601,658.641174 769.115601,674.723145 
	C545.022827,674.723145 321.285156,674.723145 96.991905,674.723145 
	C96.991905,659.158875 96.991905,643.557861 96.938141,627.492615 
z"/>
<path fill="#000000" opacity="1.000000" stroke="none" 
	d="
M97.039963,435.012695 
	C97.023956,498.729095 97.007942,562.445435 96.981812,626.638672 
	C81.165627,627.115601 65.359573,627.115601 48.996754,627.115601 
	C48.996754,563.167419 48.996754,499.571716 48.975307,435.510773 
	C48.953861,435.045502 48.993217,435.006653 49.479267,434.997803 
	C65.656868,434.996857 81.348412,435.004791 97.039963,435.012695 
z"/>
<path fill="#0A3A40" opacity="1.000000" stroke="none" 
	d="
M97.020569,435.023621 
	C81.348412,435.004791 65.656868,434.996857 49.498863,434.978271 
	C49.025280,371.300171 49.018154,307.632721 49.021721,243.498840 
	C64.719910,243.020493 80.407410,243.008606 96.567429,242.991974 
	C97.039955,242.987244 97.001160,242.965454 97.005928,243.425293 
	C97.018394,307.611176 97.026093,371.337219 97.033798,435.063263 
	C97.033798,435.063263 97.001167,435.034515 97.020569,435.023621 
z"/>
<path fill="#012626" opacity="1.000000" stroke="none" 
	d="
M193.000000,303.000000 
	C193.000000,234.884445 193.000000,167.268875 193.000000,99.327454 
	C369.131653,99.327454 544.693665,99.327454 720.627930,99.327454 
	C720.627930,259.042725 720.627930,418.605347 720.627930,578.584106 
	C545.045471,578.584106 369.483337,578.584106 193.000000,578.584106 
	C193.000000,486.966095 193.000000,395.233032 193.000000,303.000000 
M336.994171,482.106964 
	C336.994171,466.513428 336.994171,450.919891 336.994171,435.300781 
	C320.723022,435.300781 305.003143,435.300781 289.323853,435.300781 
	C289.323853,451.323914 289.323853,467.044128 289.323853,482.953979 
	C305.448120,482.953979 321.249512,482.953979 337.006470,483.896149 
	C337.006470,499.496429 337.006470,515.096680 337.006470,530.688538 
	C417.297577,530.688538 497.016510,530.688538 576.949951,530.688538 
	C576.949951,514.570374 576.949951,498.762543 577.893005,482.994171 
	C593.486511,482.994171 609.080078,482.994171 624.699219,482.994171 
	C624.699219,466.723053 624.699219,451.003174 624.699219,435.323822 
	C608.676147,435.323822 592.955872,435.323822 577.046143,435.323822 
	C577.046143,451.448090 577.046143,467.249481 576.103943,483.006470 
	C496.387543,483.021027 416.671112,483.035583 336.994171,482.106964 
M385.000000,300.536255 
	C385.000000,297.433350 385.000000,294.330444 385.000000,290.780029 
	C401.358154,290.780029 417.090057,290.780029 432.622742,290.780029 
	C432.622742,242.577927 432.622742,194.854370 432.622742,147.231506 
	C400.637909,147.231506 369.030762,147.231506 337.254578,147.231506 
	C337.254578,227.182465 337.254578,306.901794 337.254578,386.711761 
	C353.237244,386.711761 368.963928,386.711761 385.000000,386.711761 
	C385.000000,358.124664 385.000000,329.824738 385.000000,300.536255 
M529.000000,228.500000 
	C529.000000,281.250671 529.000000,334.001312 529.000000,386.647797 
	C545.367676,386.647797 561.095337,386.647797 577.290771,386.647797 
	C577.290771,354.570068 577.290771,322.842804 577.290771,290.822205 
	C593.374634,290.822205 608.985474,290.822205 624.733276,290.822205 
	C624.733276,242.798813 624.733276,195.076523 624.733276,147.297211 
	C592.741150,147.297211 561.016724,147.297211 529.000000,147.297211 
	C529.000000,174.228943 529.000000,200.864471 529.000000,228.500000 
z"/>
<path fill="#012626" opacity="1.000000" stroke="none" 
	d="
M97.499168,435.040344 
	C97.026093,371.337219 97.018394,307.611176 97.022240,243.410934 
	C112.804550,242.936737 128.575317,242.936737 144.670135,242.936737 
	C144.670135,307.085510 144.670135,370.607056 144.670135,435.017426 
	C129.094788,435.017426 113.529663,435.017426 97.499168,435.040344 
z"/>
<path fill="#F2DA63" opacity="1.000000" stroke="none" 
	d="
M385.000000,301.030518 
	C385.000000,329.824738 385.000000,358.124664 385.000000,386.711761 
	C368.963928,386.711761 353.237244,386.711761 337.254578,386.711761 
	C337.254578,306.901794 337.254578,227.182465 337.254578,147.231506 
	C369.030762,147.231506 400.637909,147.231506 432.622742,147.231506 
	C432.622742,194.854370 432.622742,242.577927 432.622742,290.780029 
	C417.090057,290.780029 401.358154,290.780029 385.000000,290.780029 
	C385.000000,294.330444 385.000000,297.433350 385.000000,301.030518 
z"/>
<path fill="#F2DA63" opacity="1.000000" stroke="none" 
	d="
M529.000000,228.000000 
	C529.000000,200.864471 529.000000,174.228943 529.000000,147.297211 
	C561.016724,147.297211 592.741150,147.297211 624.733276,147.297211 
	C624.733276,195.076523 624.733276,242.798813 624.733276,290.822205 
	C608.985474,290.822205 593.374634,290.822205 577.290771,290.822205 
	C577.290771,322.842804 577.290771,354.570068 577.290771,386.647797 
	C561.095337,386.647797 545.367676,386.647797 529.000000,386.647797 
	C529.000000,334.001312 529.000000,281.250671 529.000000,228.000000 
z"/>
<path fill="#F2DA63" opacity="1.000000" stroke="none" 
	d="
M576.949951,482.954681 
	C576.949951,498.762543 576.949951,514.570374 576.949951,530.688538 
	C497.016510,530.688538 417.297577,530.688538 337.006470,530.688538 
	C337.006470,515.096680 337.006470,499.496429 337.004120,483.448578 
	C337.001770,483.001007 336.954712,483.050140 336.954712,483.050140 
	C416.671112,483.035583 496.387543,483.021027 576.551514,483.004089 
	C576.999084,483.001709 576.949951,482.954681 576.949951,482.954681 
z"/>
<path fill="#F2DA63" opacity="1.000000" stroke="none" 
	d="
M337.026337,482.977478 
	C321.249512,482.953979 305.448120,482.953979 289.323853,482.953979 
	C289.323853,467.044128 289.323853,451.323914 289.323853,435.300781 
	C305.003143,435.300781 320.723022,435.300781 336.994171,435.300781 
	C336.994171,450.919891 336.994171,466.513428 336.974426,482.578552 
	C336.954712,483.050140 337.001770,483.001007 337.026337,482.977478 
z"/>
<path fill="#F2DA63" opacity="1.000000" stroke="none" 
	d="
M577.022583,483.026306 
	C577.046143,467.249481 577.046143,451.448090 577.046143,435.323822 
	C592.955872,435.323822 608.676147,435.323822 624.699219,435.323822 
	C624.699219,451.003174 624.699219,466.723053 624.699219,482.994171 
	C609.080078,482.994171 593.486511,482.994171 577.421509,482.974426 
	C576.949951,482.954681 576.999084,483.001709 577.022583,483.026306 
z"/>
</svg>