<svg width="80" height="80" viewBox="0 0 80 80" fill="none" xmlns="http://www.w3.org/2000/svg">
<g filter="url(#filter0_d_131_101)">
<path d="M41.1321 44.8779C44.4862 44.8779 47.2052 42.1589 47.2052 38.8048C47.2052 35.4507 44.4862 32.7317 41.1321 32.7317C37.778 32.7317 35.059 35.4507 35.059 38.8048C35.059 42.1589 37.778 44.8779 41.1321 44.8779Z" fill="#007ACC"/>
<path d="M41.1321 52.7292C33.8325 52.9057 26.5513 51.9218 19.5604 49.8141C16.331 48.7904 13.319 47.1777 10.6766 45.0576C9.66833 44.3333 8.82864 43.3995 8.21518 42.3202C7.60173 41.2409 7.22903 40.0416 7.12265 38.8047C7.12265 34.7892 11.5342 30.8538 18.9239 28.2788C26.1017 25.9971 33.6012 24.8913 41.1321 25.0042C48.5624 24.9004 55.9615 25.9862 63.0487 28.2205C66.1589 29.212 69.0687 30.7467 71.6434 32.7535C72.6345 33.444 73.4616 34.344 74.0661 35.3897C74.6706 36.4354 75.0378 37.6013 75.1415 38.8047C75.1415 42.9782 70.2102 47.2075 62.2665 49.8359C55.411 51.875 48.2834 52.8507 41.1321 52.7292ZM41.1321 27.9096C33.9272 27.8133 26.753 28.8645 19.8786 31.0239C13.0767 33.3972 10.028 36.6427 10.028 38.7974C10.028 41.0518 13.3051 44.596 20.5005 47.0569C27.1884 49.0631 34.1519 49.997 41.1321 49.8238C47.9738 49.9461 54.794 49.0204 61.3556 47.0787C68.8255 44.6033 72.2264 41.0542 72.2264 38.8047C72.1039 38.0328 71.8225 37.2946 71.4002 36.6369C70.9779 35.9792 70.4238 35.4162 69.7729 34.9835C67.4694 33.2032 64.8699 31.8431 62.094 30.9655C55.3141 28.8369 48.2376 27.8053 41.1321 27.9096Z" fill="#007ACC"/>
<path d="M27.334 69.0951C26.2007 69.1211 25.0809 68.8461 24.0885 68.2983C20.6098 66.2917 19.4049 60.5052 20.8649 52.8167C22.4746 45.4587 25.2638 38.4095 29.1243 31.9422C32.7457 25.4539 37.3818 19.5868 42.8569 14.5634C45.2695 12.3642 48.0527 10.6099 51.0774 9.38177C52.1715 8.86905 53.3649 8.60327 54.5731 8.60327C55.7813 8.60327 56.9748 8.86905 58.0688 9.38177C61.6859 11.4661 62.8836 17.8501 61.1952 26.044C59.5358 33.0027 56.8191 39.6658 53.1399 45.801C49.646 52.2127 45.1558 58.0287 39.8373 63.0317C37.3371 65.3171 34.4355 67.12 31.2791 68.3493C30.0154 68.8183 28.6816 69.0704 27.334 69.0951ZM31.641 33.3851C27.9585 39.5781 25.2853 46.3177 23.7217 53.3511C22.3783 60.4324 23.6682 64.6908 25.5436 65.7743C27.487 66.899 32.2046 65.8326 37.9328 60.8283C43.01 56.0353 47.2957 50.4681 50.6304 44.3338C54.1551 38.4684 56.7611 32.098 58.3579 25.4439C59.9466 17.7311 58.5741 13.0086 56.6258 11.8863C55.8956 11.6065 55.1153 11.4813 54.3342 11.5185C53.5532 11.5557 52.7883 11.7546 52.088 12.1025C49.3956 13.2135 46.9203 14.7908 44.776 16.7618C39.545 21.5736 35.1165 27.1904 31.658 33.3997L31.641 33.3851Z" fill="#007ACC"/>
<path d="M54.9229 69.1267C51.6313 69.1267 47.4506 67.1347 43.0974 63.3912C37.5264 58.322 32.8119 52.3852 29.1365 45.8108C25.3243 39.4324 22.5573 32.4852 20.9402 25.2326C20.2389 22.0418 20.109 18.7519 20.5564 15.5156C20.6598 14.3151 21.0254 13.1519 21.6273 12.108C22.2292 11.0642 23.0527 10.1651 24.0399 9.47411C27.6522 7.38253 33.7812 9.53241 40.0365 15.0857C45.2365 19.998 49.6524 25.6789 53.1301 31.9301C56.9399 38.1595 59.736 44.9545 61.4139 52.0612C62.1454 55.3691 62.2582 58.7839 61.7467 62.1329C61.625 63.3679 61.2376 64.562 60.6112 65.6334C59.9847 66.7047 59.134 67.6278 58.1174 68.3396C57.1412 68.8806 56.0387 69.1523 54.9229 69.1267ZM31.6508 44.3484C35.1766 50.6314 39.6801 56.3133 44.9922 61.1806C50.4555 65.8812 54.7893 66.8918 56.6525 65.7962C58.5959 64.6666 60.0292 60.0559 58.5522 52.5956C56.934 45.8106 54.2522 39.3244 50.6062 33.3779C47.2874 27.3949 43.0724 21.9552 38.1077 17.2477C32.2192 12.02 27.4433 10.8515 25.4975 11.9787C24.891 12.4715 24.3933 13.0848 24.0358 13.7797C23.6783 14.4746 23.4688 15.2361 23.4205 16.0161C23.0342 18.9022 23.1601 21.8339 23.7921 24.6763C25.3476 31.6122 28.0014 38.2549 31.6532 44.3532L31.6508 44.3484Z" fill="#007ACC"/>
</g>
<defs>
<filter id="filter0_d_131_101" x="-1.73584" y="0" width="85.7358" height="85.7358" filterUnits="userSpaceOnUse" color-interpolation-filters="sRGB">
<feFlood flood-opacity="0" result="BackgroundImageFix"/>
<feColorMatrix in="SourceAlpha" type="matrix" values="0 0 0 0 0 0 0 0 0 0 0 0 0 0 0 0 0 0 127 0" result="hardAlpha"/>
<feOffset dy="4"/>
<feGaussianBlur stdDeviation="2"/>
<feComposite in2="hardAlpha" operator="out"/>
<feColorMatrix type="matrix" values="0 0 0 0 0 0 0 0 0 0 0 0 0 0 0 0 0 0 0.25 0"/>
<feBlend mode="normal" in2="BackgroundImageFix" result="effect1_dropShadow_131_101"/>
<feBlend mode="normal" in="SourceGraphic" in2="effect1_dropShadow_131_101" result="shape"/>
</filter>
</defs>
</svg>
